<svg width="1440" height="1024" viewBox="0 0 1440 1024" fill="none" xmlns="http://www.w3.org/2000/svg">
<path d="M-66 194.052C-52.3711 194.052 -37.3565 197.168 -24.1595 194.052C-2.38357 188.912 18.1017 182.157 39.3086 175.5C59.2425 169.243 75 159 92.6578 145.958C109.408 134.997 125.331 122.772 140.5 110C173.507 82.2091 208.5 60 243.451 33.1288C249.962 27.2703 257.751 22.9113 264.601 17.4792C269.292 13.7595 276.568 8.33463 282.391 6.56266C287.67 4.95611 293.363 2.74279 298.806 1.75328C301.856 1.19876 307.451 -1.95943 303.693 3.05105M-45.3852 251.765C-21.8715 251.765 2.86752 250.422 26.3086 248.33C57.1593 245.575 89.336 241.409 119.533 234.207C156.905 225.294 191.824 208.761 227.265 194.052C256.761 181.811 288.292 166.403 312.397 145.195C324.105 134.893 336.302 125.721 347.365 114.659C357.05 104.976 364.84 93.9276 373.783 83.5891C387.503 67.7281 398.672 52.2837 407.836 33.2814C414.328 19.8174 413.638 3.85822 413.638 -10.6901V-23.1334C413.638 -31.6337 413.23 -31.9673 404.018 -32.6758M-56.3798 325.967C-41.8723 324.154 -25.4182 324.593 -10.1109 324.593C3.79028 324.593 17.758 324.964 31.6532 324.516C50.0424 323.923 67.9933 319.491 86.1679 317.111C163.516 306.984 241.19 295.882 312.626 262.758C383.398 229.941 451.914 188.159 501.595 126.721C527.003 95.2996 552.47 62.056 566.493 23.8154C576.217 -2.69963 585.519 -29.5355 598.866 -54.5088C610.42 -76.126 627.337 -93.8153 644.524 -111M-63.2514 691.48C-57.0223 691.091 -59.1284 671.471 -59.1284 666.593C-59.1284 648.346 -54.1119 631.547 -47.523 614.682C-40.4043 596.461 -33.3321 577.889 -22.4798 561.474C-12.675 546.643 0.923546 534.822 13.0999 522.006C23.2305 511.344 34.3856 501.14 45.7782 491.852C92.8622 453.467 143.662 419.901 199.397 395.436C258.6 369.448 314.54 336.683 373.783 310.852C422.678 289.532 471.898 267.912 516.712 238.787C537.308 225.402 556.587 211.173 573.67 193.365C592.189 174.062 605.627 150.691 618.412 127.408C634.794 97.5738 643.71 66.1535 651.396 33.2815C658.194 4.20673 660.066 -30.607 655.519 -60.158M-61.8771 1004.78V927.369C-61.8771 905.194 -55.8876 886.006 -41.7203 868.435C-22.9634 845.17 -1.21564 823.356 19.8951 802.248C46.4815 775.666 75.69 749.146 107.623 729.192C125.499 718.02 144.681 709.138 163.512 699.724C214.518 674.225 264.716 644.632 312.168 613.003C337.263 596.275 364.045 582.623 389.969 567.276C420.481 549.212 448.541 527.748 477.01 506.738C509.99 482.4 541.303 456.134 573.747 431.086C606.007 406.18 639.275 378.465 665.445 347.036C693.162 313.749 721.146 277.687 740.956 239.016C761.567 198.782 774.022 157.049 781.651 112.522C787.588 77.8722 792.188 43.2567 795.013 8.24214C795.378 3.70634 798.608 -12.0251 795.394 -15.8811C794.303 -17.1904 787.694 -16.1865 786.08 -16.1865M908.394 -16.1865C911.345 -16.1865 914.301 -16.2411 917.251 -16.1865C931.741 -15.9182 935.53 -0.393791 940.08 11.2193C973.328 96.0769 987.504 197.054 971.002 286.576C960.053 345.978 935.515 401.786 906.409 454.37C868.275 523.263 823.497 590.112 775.543 652.547C715.89 730.214 646.118 799.175 567.944 858.205C528.711 887.831 487.952 915.369 448.607 944.85C409.185 974.39 370.913 1005.49 332.553 1036.38M1033.46 -16.1865C1022.5 -16.1865 1025.11 24.9502 1025.29 32.2127C1026.27 73.6461 1034.55 115.375 1045.9 155.119C1057.98 197.374 1069.16 239.764 1080.18 282.301C1097.01 347.231 1109.91 413.897 1096.68 480.783C1085.79 535.812 1054.53 585.061 1016.58 625.675C984.409 660.116 942.638 678.647 904.653 705.145C859.516 736.631 819.87 775.669 793.715 824.463C775.062 859.26 763.482 894.117 758.135 933.323C755.059 955.878 754.524 978.732 756.455 1001.42C757.838 1017.67 762.323 1029.91 767.717 1044.64L768.213 1046M1213.49 -16.1865C1214.26 -16.1865 1206.22 -16.4169 1204.41 -15.8811C1197.33 -13.7856 1194.6 -4.1237 1192.27 1.8296C1186.89 15.5388 1181.96 29.3336 1179.14 43.8163C1157.22 156.344 1192.53 267.153 1219.6 375.435C1232.3 426.212 1241.22 478.447 1244.8 530.709C1248.34 582.49 1249.23 637.709 1232.05 687.357C1212.54 743.736 1180 796.012 1153.33 849.197C1136.98 881.793 1124.12 915.841 1121.57 952.561C1119.54 981.684 1125.14 1010.52 1129.66 1039.13M1312.44 -16.1865C1309.78 -16.1865 1306.82 -16.5748 1304.2 -16.1865C1293.64 -14.6228 1290.9 8.88903 1289.08 16.4868C1276.51 69.022 1279.11 127.091 1282.82 180.464C1285.62 220.649 1290.41 260.564 1296.87 300.317C1306.68 360.734 1317.53 420.399 1338.33 478.188C1360.69 540.326 1394.14 595.47 1429.26 651.02C1445.59 676.849 1454 699.67 1454 729.955M1401.78 -16.1865C1398.97 -15.8361 1398.28 -7.84437 1397.58 -5.80434C1393.87 5.01167 1391.45 16.3053 1389.41 27.556C1384.46 54.761 1385.44 79.9077 1395.21 106.109C1407.24 138.354 1433.39 161.884 1454 188.556M1444.38 883.855C1448.15 883.384 1433.78 877.283 1432.62 876.985C1414.37 872.293 1396.09 871.573 1377.5 875.076C1354.07 879.489 1335.3 892.807 1320.77 911.49C1291 949.753 1290.22 998.356 1284.96 1044.63M-53 194.052C-39.3711 194.052 -24.3565 197.168 -11.1595 194.052C10 190.5 29.7931 185.157 51 178.5C70.9339 172.243 90.7554 158.286 108 147C124.75 136.038 138.666 124.454 153.835 111.682C188 85 221 61 256.451 33.1288C262.962 27.2703 270.751 22.9113 277.601 17.4792C282.292 13.7595 289.568 8.33463 295.391 6.56266C300.67 4.95611 306.363 2.74279 311.806 1.75328C314.856 1.19876 320.451 -1.95943 316.693 3.05105M-32.3852 251.765C-8.87147 251.765 15.8675 250.422 39.3086 248.33C70.1593 245.575 102.336 241.409 132.533 234.207C169.905 225.294 204.824 208.761 240.265 194.052C269.761 181.811 301.292 166.403 325.397 145.195C337.105 134.893 349.302 125.721 360.365 114.659C370.05 104.976 377.84 93.9276 386.783 83.5891C400.503 67.7281 411.672 52.2837 420.836 33.2814C427.328 19.8174 426.638 3.85822 426.638 -10.6901V-23.1334C426.638 -31.6337 426.23 -31.9673 417.018 -32.6758M-43.3798 325.967C-28.8723 324.154 -12.4182 324.593 2.88907 324.593C16.7903 324.593 30.758 324.964 44.6532 324.516C63.0424 323.923 80.9933 319.491 99.1679 317.111C176.516 306.984 254.19 295.882 325.626 262.758C396.398 229.941 464.914 188.159 514.595 126.721C540.003 95.2996 565.47 62.056 579.493 23.8154C589.217 -2.69963 598.519 -29.5355 611.866 -54.5088C623.42 -76.126 640.337 -93.8153 657.524 -111M-50.2514 691.48C-44.0223 691.091 -46.1284 671.471 -46.1284 666.593C-46.1284 648.346 -41.1119 631.547 -34.523 614.682C-27.4043 596.461 -20.3321 577.889 -9.47981 561.474C0.324982 546.643 13.9235 534.822 26.0999 522.006C36.2305 511.344 47.3856 501.14 58.7782 491.852C105.862 453.467 156.662 419.901 212.397 395.436C271.6 369.448 327.54 336.683 386.783 310.852C435.678 289.532 484.898 267.912 529.712 238.787C550.308 225.402 569.587 211.173 586.67 193.365C605.189 174.062 618.627 150.691 631.412 127.408C647.794 97.5738 656.71 66.1535 664.396 33.2815C671.194 4.20673 673.066 -30.607 668.519 -60.158M-48.8771 1004.78V927.369C-48.8771 905.194 -42.8876 886.006 -28.7203 868.435C-9.96343 845.17 11.7844 823.356 32.8951 802.248C59.4815 775.666 88.69 749.146 120.623 729.192C138.499 718.02 157.681 709.138 176.512 699.724C227.518 674.225 277.716 644.632 325.168 613.003C350.263 596.275 377.045 582.623 402.969 567.276C433.481 549.212 461.541 527.748 490.01 506.738C522.99 482.4 554.303 456.134 586.747 431.086C619.007 406.18 652.275 378.465 678.445 347.036C706.162 313.749 734.146 277.687 753.956 239.016C774.567 198.782 787.022 157.049 794.651 112.522C800.588 77.8722 805.188 43.2567 808.013 8.24214C808.378 3.70634 811.608 -12.0251 808.394 -15.8811C807.303 -17.1904 800.694 -16.1865 799.08 -16.1865M921.394 -16.1865C924.345 -16.1865 927.301 -16.2411 930.251 -16.1865C944.741 -15.9182 948.53 -0.393791 953.08 11.2193C986.328 96.0769 1000.5 197.054 984.002 286.576C973.053 345.978 948.515 401.786 919.409 454.37C881.275 523.263 836.497 590.112 788.543 652.547C728.89 730.214 659.118 799.175 580.944 858.205C541.711 887.831 500.952 915.369 461.607 944.85C422.185 974.39 383.913 1005.49 345.553 1036.38M1046.46 -16.1865C1035.5 -16.1865 1038.11 24.9502 1038.29 32.2127C1039.27 73.6461 1047.55 115.375 1058.9 155.119C1070.98 197.374 1082.16 239.764 1093.18 282.301C1110.01 347.231 1122.91 413.897 1109.68 480.783C1098.79 535.812 1067.53 585.061 1029.58 625.675C997.409 660.116 955.638 678.647 917.653 705.145C872.516 736.631 832.87 775.669 806.715 824.463C788.062 859.26 776.482 894.117 771.135 933.323C768.059 955.878 767.524 978.732 769.455 1001.42C770.838 1017.67 775.323 1029.91 780.717 1044.64L781.213 1046M1226.49 -16.1865C1227.26 -16.1865 1219.22 -16.4169 1217.41 -15.8811C1210.33 -13.7856 1207.6 -4.1237 1205.27 1.8296C1199.89 15.5388 1194.96 29.3336 1192.14 43.8163C1170.22 156.344 1205.53 267.153 1232.6 375.435C1245.3 426.212 1254.22 478.447 1257.8 530.709C1261.34 582.49 1262.23 637.709 1245.05 687.357C1225.54 743.736 1193 796.012 1166.33 849.197C1149.98 881.793 1137.12 915.841 1134.57 952.561C1132.54 981.684 1138.14 1010.52 1142.66 1039.13M1325.44 -16.1865C1322.78 -16.1865 1319.82 -16.5748 1317.2 -16.1865C1306.64 -14.6228 1303.9 8.88903 1302.08 16.4868C1289.51 69.022 1292.11 127.091 1295.82 180.464C1298.62 220.649 1303.41 260.564 1309.87 300.317C1319.68 360.734 1330.53 420.399 1351.33 478.188C1373.69 540.326 1407.14 595.47 1442.26 651.02C1458.59 676.849 1467 699.67 1467 729.955M1414.78 -16.1865C1411.97 -15.8361 1411.28 -7.84437 1410.58 -5.80434C1406.87 5.01167 1404.45 16.3053 1402.41 27.556C1397.46 54.761 1398.44 79.9077 1408.21 106.109C1420.24 138.354 1446.39 161.884 1467 188.556M1457.38 883.855C1461.15 883.384 1446.78 877.283 1445.62 876.985C1427.37 872.293 1409.09 871.573 1390.5 875.076C1367.07 879.489 1348.3 892.807 1333.77 911.49C1304 949.753 1303.22 998.356 1297.96 1044.63" stroke="url(#paint0_linear_160_100)" stroke-opacity="0.08" stroke-width="3" stroke-linecap="round"/>
<defs>
<linearGradient id="paint0_linear_160_100" x1="700.5" y1="-111" x2="700.5" y2="1046" gradientUnits="userSpaceOnUse">
<stop stop-color="#10B981"/>
<stop offset="1" stop-color="#DB2777"/>
</linearGradient>
</defs>
</svg>
