<svg width="75" height="75" viewBox="0 0 75 75" fill="none" xmlns="http://www.w3.org/2000/svg">
<path d="M74.2957 43.3427C75.5752 46.2235 74.8044 49.6892 74.3231 51.8508C72.038 62.1174 61.8218 67.4917 56.7313 70.167C50.5295 73.4272 45.1886 74.3361 43.0053 74.6325C37.4648 75.3833 33.1803 74.7787 31.8343 74.5653C30.6605 74.3796 26.3956 73.6446 21.1838 71.1668C17.9988 69.6533 10.8932 66.1679 6.04524 58.6201C4.22189 55.7788 2.10508 52.483 3.3063 50.1357C4.24536 48.3021 7.02343 47.409 14.6651 47.6896C25.3195 48.0808 29.7879 50.1831 37.41 51.3054C49.3753 53.0679 61.7005 51.3212 61.9587 49.132C62.2052 47.0375 51.4803 44.1725 51.0186 44.054C25.613 37.3716 5.52484 49.9974 0.845163 42.9672C-0.536045 40.8965 -0.0430359 37.826 0.91168 31.689C2.57852 21.0509 8.51028 12.1674 16.6684 6.53619C24.2083 1.3357 33.6498 -1.08671 43.3809 0.462369C44.3356 0.612535 48.6866 1.34361 54.0315 3.86086C57.4786 5.48503 62.5222 7.86002 66.9671 13.1712C69.0722 15.6845 72.758 20.0906 73.1454 26.6071C73.3214 29.6143 73.4466 31.7087 72.2532 33.3013C68.2309 38.6678 54.9314 30.7524 37.4961 30.5114C20.4325 30.2743 6.9843 37.498 7.2895 39.0748C7.91554 42.3113 67.4601 27.9506 74.2957 43.3427Z" fill="url(#paint0_linear_160_49)" fill-opacity="0.7"/>
<defs>
<linearGradient id="paint0_linear_160_49" x1="74.9968" y1="37.4989" x2="-0.00982666" y2="37.4989" gradientUnits="userSpaceOnUse">
<stop stop-color="#FCD307" stop-opacity="0.7"/>
<stop offset="1" stop-color="#10B981"/>
</linearGradient>
</defs>
</svg>
